<svg width="27" height="27" viewBox="0 0 27 27" fill="none" xmlns="http://www.w3.org/2000/svg">
<path fill-rule="evenodd" clip-rule="evenodd" d="M13.784 2.62198C10.8477 2.62198 10.4802 2.63495 9.32666 2.68684C8.17639 2.73982 7.39044 2.92252 6.70287 3.18955C5.98124 3.46073 5.32747 3.88612 4.7872 4.43603C4.23731 4.97633 3.81193 5.63009 3.54071 6.35171C3.27369 7.03928 3.09098 7.82522 3.03801 8.97549C2.98504 10.129 2.97314 10.4966 2.97314 13.4328C2.97314 16.369 2.98504 16.7366 3.03801 17.8901C3.09098 19.0404 3.27369 19.8263 3.54071 20.5139C3.81196 21.2355 4.23734 21.8892 4.7872 22.4295C5.32752 22.9794 5.98127 23.4048 6.70287 23.676C7.39044 23.9431 8.17639 24.1258 9.32666 24.1787C10.4802 24.2306 10.8477 24.2436 13.784 24.2436C16.7202 24.2436 17.0877 24.2306 18.2413 24.1787C19.3915 24.1258 20.1775 23.9431 20.865 23.676C21.5867 23.4048 22.2404 22.9794 22.7807 22.4295C23.3306 21.8893 23.756 21.2355 24.0272 20.5139C24.2942 19.8263 24.4769 19.0404 24.5299 17.8901C24.5818 16.7366 24.5948 16.369 24.5948 13.4328C24.5948 10.4966 24.5818 10.129 24.5299 8.97549C24.4769 7.82522 24.2942 7.03928 24.0272 6.35171C23.756 5.63009 23.3306 4.97633 22.7807 4.43603C22.2404 3.88612 21.5867 3.46073 20.865 3.18955C20.1775 2.92252 19.3915 2.73982 18.2413 2.68684C17.0877 2.63495 16.7202 2.62198 13.784 2.62198ZM13.784 4.57009C16.6704 4.57009 17.0121 4.5809 18.1515 4.63279C19.2067 4.68144 19.7786 4.85657 20.1602 5.00468C20.664 5.20144 21.025 5.43603 21.4034 5.81333C21.7818 6.19171 22.0153 6.55279 22.2121 7.05657C22.3591 7.4382 22.5364 8.01009 22.584 9.06414C22.6358 10.2047 22.6467 10.5452 22.6467 13.4328C22.6467 16.3193 22.6358 16.6609 22.584 17.8004C22.5353 18.8555 22.3591 19.4274 22.2121 19.809C22.0387 20.2786 21.7624 20.7034 21.4034 21.0522C21.025 21.4306 20.664 21.6641 20.1602 21.8609C19.7786 22.0079 19.2067 22.1852 18.1526 22.2328C17.0131 22.2847 16.6715 22.2955 13.784 22.2955C10.8975 22.2955 10.5548 22.2847 9.41639 22.2328C8.36125 22.1841 7.78936 22.0079 7.40774 21.8609C6.9381 21.6876 6.51327 21.4113 6.1645 21.0522C5.80542 20.7035 5.5291 20.2786 5.35585 19.809C5.20774 19.4274 5.03152 18.8555 4.98396 17.8014C4.93206 16.6609 4.92125 16.3204 4.92125 13.4328C4.92125 10.5463 4.93206 10.2047 4.98396 9.06522C5.0326 8.01009 5.20774 7.4382 5.35585 7.05657C5.5526 6.55279 5.7872 6.19171 6.1645 5.81333C6.54287 5.43495 6.90396 5.20144 7.40774 5.00468C7.78936 4.85657 8.36125 4.68036 9.41531 4.63279C10.5558 4.5809 10.8964 4.57009 13.784 4.57009ZM13.784 17.036C12.8283 17.036 11.9118 16.6564 11.2361 15.9807C10.5603 15.3049 10.1807 14.3884 10.1807 13.4328C10.1807 12.4772 10.5603 11.5607 11.2361 10.8849C11.9118 10.2092 12.8283 9.82955 13.784 9.82955C14.7396 9.82955 15.6561 10.2092 16.3318 10.8849C17.0076 11.5607 17.3872 12.4772 17.3872 13.4328C17.3872 14.3884 17.0076 15.3049 16.3318 15.9807C15.6561 16.6564 14.7396 17.036 13.784 17.036ZM13.784 7.88144C13.0549 7.88144 12.3331 8.02503 11.6595 8.30401C10.986 8.58299 10.374 8.9919 9.85856 9.50739C9.34307 10.0229 8.93416 10.6349 8.65518 11.3084C8.37619 11.9819 8.2326 12.7038 8.2326 13.4328C8.2326 14.1618 8.37619 14.8837 8.65518 15.5572C8.93416 16.2307 9.34307 16.8427 9.85856 17.3582C10.374 17.8737 10.986 18.2826 11.6595 18.5616C12.3331 18.8406 13.0549 18.9841 13.784 18.9841C15.2563 18.9841 16.6683 18.3993 17.7094 17.3582C18.7504 16.3171 19.3353 14.9051 19.3353 13.4328C19.3353 11.9605 18.7504 10.5485 17.7094 9.50739C16.6683 8.46631 15.2563 7.88144 13.784 7.88144ZM20.8521 7.66198C20.8521 7.83234 20.8185 8.00104 20.7533 8.15843C20.6881 8.31583 20.5926 8.45884 20.4721 8.57931C20.3516 8.69977 20.2086 8.79533 20.0512 8.86053C19.8938 8.92572 19.7251 8.95928 19.5548 8.95928C19.3844 8.95928 19.2157 8.92572 19.0583 8.86053C18.9009 8.79533 18.7579 8.69977 18.6374 8.57931C18.517 8.45884 18.4214 8.31583 18.3562 8.15843C18.291 8.00104 18.2575 7.83234 18.2575 7.66198C18.2575 7.31791 18.3941 6.98794 18.6374 6.74465C18.8807 6.50136 19.2107 6.36468 19.5548 6.36468C19.8988 6.36468 20.2288 6.50136 20.4721 6.74465C20.7154 6.98794 20.8521 7.31791 20.8521 7.66198Z" fill="white"/>
</svg>
