<svg width="11" height="22" viewBox="0 0 11 22" fill="none" xmlns="http://www.w3.org/2000/svg">
<path d="M7.44727 0.5C8.50663 0.5 9.3175 0.634283 10.3057 0.832031L9.90039 3.37793C9.35193 3.29506 8.74911 3.24023 8.32031 3.24023C7.55649 3.24024 6.96174 3.40251 6.61426 3.88379C6.45061 4.11048 6.375 4.36631 6.33691 4.60938C6.29927 4.84964 6.29395 5.10933 6.29395 5.36035V7.63574H9.83301L9.60547 10.3135H6.29395V21.5H2.80664V10.3135H0.5V7.63574H2.80664V4.86133C2.80664 3.37298 3.1563 2.31058 3.85156 1.61523C4.54706 0.919753 5.67943 0.500071 7.44727 0.5Z" fill="black" stroke="black"/>
</svg>
